<?xml version="1.0" encoding="utf-8"?>
<!-- Generator: Adobe Illustrator 21.0.2, SVG Export Plug-In . SVG Version: 6.00 Build 0)  -->
<svg version="1.1" id="Layer_3" xmlns="http://www.w3.org/2000/svg" xmlns:xlink="http://www.w3.org/1999/xlink" x="0px" y="0px"
	 viewBox="0 0 1250 1250" style="enable-background:new 0 0 1250 1250;" xml:space="preserve">
<style type="text/css">
	.st0{fill:#0D526D;stroke:#000000;stroke-miterlimit:10;}
	.st1{fill:#6ACFFB;stroke:#000000;stroke-miterlimit:10;}
	.st2{fill:url(#SVGID_1_);}
	.st3{fill:#54AECF;stroke:#000000;stroke-miterlimit:10;}
	.st4{fill:#FFFFFF;}
	.st5{fill:#D1B482;stroke:#000000;stroke-miterlimit:10;}
	.st6{fill:#FFEBE6;}
	.st7{fill:url(#SVGID_2_);}
	.st8{fill:url(#SVGID_3_);}
	.st9{fill:url(#SVGID_4_);}
	.st10{fill:#1A83B7;stroke:#000000;stroke-miterlimit:10;}
	.st11{fill:url(#SVGID_5_);}
	.st12{fill:url(#SVGID_6_);}
	.st13{fill:url(#SVGID_7_);}
	.st14{fill:url(#SVGID_8_);}
	.st15{fill:#916243;stroke:#000000;stroke-miterlimit:10;}
	.st16{fill:#7A4F37;}
	.st17{fill:none;stroke:#000000;stroke-miterlimit:10;}
	.st18{fill:url(#SVGID_9_);}
	.st19{fill:url(#SVGID_10_);}
	.st20{fill:url(#SVGID_11_);}
	.st21{fill:url(#SVGID_12_);stroke:#000000;stroke-miterlimit:10;}
	.st22{fill:url(#SVGID_13_);}
	.st23{fill:url(#SVGID_14_);}
	.st24{fill:url(#SVGID_15_);}
	.st25{fill:url(#SVGID_16_);stroke:#000000;stroke-miterlimit:10;}
	.st26{fill:url(#SVGID_17_);}
	.st27{fill:url(#SVGID_18_);}
	.st28{fill:url(#SVGID_19_);}
	.st29{stroke:#000000;stroke-miterlimit:10;}
	.st30{fill:#D1B482;}
	.st31{fill:url(#SVGID_20_);}
	.st32{fill:none;stroke:#000000;stroke-linecap:round;stroke-linejoin:round;stroke-miterlimit:10;}
	.st33{fill:#D1B482;stroke:#000000;stroke-linecap:round;stroke-linejoin:round;stroke-miterlimit:10;}
	.st34{fill:url(#SVGID_21_);}
	.st35{fill:url(#SVGID_22_);}
</style>
<g>
	<path class="st0" d="M430.6,655.5c0,0-73.3-2-88,0s-32.3,11-25.4,27s92.8,15,124.1,20s156.4,52,201.3,56c45,4,192.5-21,226.7-42
		s61.4-44.7,51.8-52c-26.4-20-155.4,10-155.4,10L430.6,655.5z"/>
	<g>
		<path class="st1" d="M538.5,447.5c0,0-117,96-138,234s9,349,9,349l439,12c0,0,38-320,36-389s-130-211-130-211c-18-8-137-28-160-21
			S538.5,447.5,538.5,447.5z"/>
	</g>
	<linearGradient id="SVGID_1_" gradientUnits="userSpaceOnUse" x1="502.8435" y1="722.8057" x2="498.6619" y2="660.6495">
		<stop  offset="0.2872" style="stop-color:#6ACFFB"/>
		<stop  offset="0.8764" style="stop-color:#54AECF"/>
	</linearGradient>
	<path class="st2" d="M461.9,705.5c22.5,9.3,48.6,8.8,71-0.7c24.5-10.5,44.8-33.4,46.9-60c-30.5,21.7-71.4,23.9-107.9,15.8
		c-9.2-2-63.1-17.3-54.3,4C425.1,682.9,444,698.1,461.9,705.5z"/>
	<path class="st3" d="M436.6,484.1c-8-3.2-16.4-5.4-24.9-6.6c-4.6-0.7-9.6-0.9-13.4,1.6c-4.9,3.2-6.3,9.9-4.8,15.6
		c1.4,5.6,5.1,10.4,8.7,14.9c5,6.4,10,12.8,15.1,19.2c2.1,2.7,4.5,5.6,7.9,6.4c3.5,0.8,7.1-0.8,10.3-2.4c5.6-2.8,11.3-5.7,16.9-8.5
		c10.8-5.4,23.2-13.5,22.5-25.6c-0.5-8.4-7.9-15.2-16-17.7s-16.8-1.6-25.2-0.7"/>
	<path class="st3" d="M898.2,529.1c8-3.2,16.4-5.4,24.9-6.6c4.6-0.7,9.6-0.9,13.4,1.6c4.9,3.2,6.3,9.9,4.8,15.6
		c-1.4,5.6-5.1,10.4-8.7,14.9c-5,6.4-10,12.8-15.1,19.2c-2.1,2.7-4.5,5.6-7.9,6.4c-3.5,0.8-7.1-0.8-10.3-2.4
		c-5.6-2.8-11.3-5.7-16.9-8.5c-10.8-5.4-23.2-13.5-22.5-25.6c0.5-8.4,7.9-15.2,16-17.7s16.8-1.6,25.2-0.7"/>
	<g>
		<path class="st4" d="M645.5,720.3c-9.3,0-16.8-6.1-19.5-16c-2.7-9.9,2.1-27.6,2.9-30.4h47.2c0.5,3.9,3.6,31.8-0.9,37.2
			c-4.5,5.4-12.1,6.6-22.8,8.3c-1,0.2-1.9,0.3-2.9,0.5C648.1,720.2,646.8,720.3,645.5,720.3C645.5,720.3,645.5,720.3,645.5,720.3z"
			/>
		<path d="M675.6,674.5c1.1,9.4,2.9,31.9-0.9,36.4c-4.3,5.2-11.9,6.5-22.5,8.2c-1,0.2-1.9,0.3-2.9,0.5c-1.3,0.2-2.6,0.3-3.8,0.3
			c-9.1,0-16.4-6-19-15.6c-2.6-9.4,1.8-26.1,2.8-29.7H675.6 M676.5,673.5h-48c0,0-6,20-3,31c2.7,9.7,10,16.3,20,16.3
			c1.3,0,2.6-0.1,4-0.3c12-2,21-3,26-9S676.5,673.5,676.5,673.5L676.5,673.5z"/>
	</g>
	<path class="st5" d="M510.5,410.9"/>
	<path class="st5" d="M808,458.6"/>
	<g>
		<path class="st6" d="M657.9,658.5c0,0-73.3,1-44,34.2c9.8,11.1,20.7-1,34.5,0c13.8,1,19.8,13.1,30.2,11.1s16.4-21.1,9.5-30.2
			C681.2,664.5,657.9,658.5,657.9,658.5z"/>
	</g>
	<g>
		<path class="st1" d="M516.5,1098.4c0,0-45,29.1-40.1,39.9c2.6,5.8,11.4,13.8,30.4,7.4c32.6-11,36.3-26,44.5-38.9
			c5.3-8.4-7.7-24.9-7.7-24.9L516.5,1098.4z"/>
	</g>
	<g>
		<path class="st1" d="M787.5,1108.5c0,0,50,24,40,40s-47,13-59,0c-9.7-10.5-26-37-26-37L787.5,1108.5z"/>
	</g>
	<linearGradient id="SVGID_2_" gradientUnits="userSpaceOnUse" x1="801.3585" y1="1163.4755" x2="774.4741" y2="1102.8389">
		<stop  offset="0.2872" style="stop-color:#6ACFFB"/>
		<stop  offset="0.8764" style="stop-color:#54AECF"/>
	</linearGradient>
	<path class="st7" d="M811.6,1128.5c-5.2,0.7-10.4,1.4-15.6,2c-5.9,0.8-11.9,1.6-17.2,4.4c-5.2,2.8-9.6,8.1-9.5,14
		c-7.8-8.5-10.8-16-17.3-23.1c17.1-3.4,34.7-4.1,52-2.3c5.5,0.6,10.5,1.8,14.8,5.4C816.5,1128,814,1128.2,811.6,1128.5z"/>
	<linearGradient id="SVGID_3_" gradientUnits="userSpaceOnUse" x1="493.4951" y1="1149.1807" x2="527.7737" y2="1102.3068">
		<stop  offset="0.2872" style="stop-color:#6ACFFB"/>
		<stop  offset="0.8764" style="stop-color:#54AECF"/>
	</linearGradient>
	<path class="st8" d="M495.7,1123.1c5.7,0.5,12.1,1.9,15,6.8c2.4,4.2,1.3,9.6-1,13.9c14.4-3.3,26.4-12.5,34.2-25.1
		c-18.7,0.4-36.4,0.8-55.1,1.3c-2,0-4.4,1-2.1,2.7C488.1,1123.7,493.8,1122.9,495.7,1123.1z"/>
	<linearGradient id="SVGID_4_" gradientUnits="userSpaceOnUse" x1="673.763" y1="685.9106" x2="860.0123" y2="685.9106">
		<stop  offset="0.2872" style="stop-color:#6ACFFB"/>
		<stop  offset="0.8764" style="stop-color:#54AECF"/>
	</linearGradient>
	<path class="st9" d="M699,759c-16,11,128.5-5.2,129.5-4.5c0.8,0.6,1.9,0.5,2.8,0.4c10.8-1,21.6-2.1,32.5-3.1
		c3.2-0.3,6.5-0.7,9.1-2.5c2.8-1.9,7.4-44.4,10.1-46.3c0.4-0.3,0-29,0-29c-1.4-4.5,3-5.8-0.2-9.2c-5.8-6-14.3-8.3-22.4-10.4
		c-34.8-9.3-68.7-22.1-100.9-38.2c-5.7-2.8-11.5-5.8-17.8-6.9c-26.2-4.6-12.9,41.4-6.7,54.7C743.3,682,724.6,741.4,699,759z"/>
	<g>
		<path class="st10" d="M362,741.9c2.7,3.2,5.2,0.9-2.7,17.2c-7.9,16.3,13.8,111,0.6,164.9c-3.2,13.1-7.4,26.5-16.1,36.7
			c-5.8,6.8-13.5,12.1-18.2,19.7c-4.6,7.4-6.1,16.4-10.3,24.1c-4.8,8.8-12.9,15.3-20.9,21.3c-34.1,25.6-110.7,57-109.5,65.3
			c21.8,26.3,84.4,12.2,126.6,18.3c31.7,4.6,63.3,9.1,95.3,11c87.6,5.2,175.5-10,262.9-3.2c43.2,3.4,86.3,12.1,129.6,9.9
			c36.3-1.9,71.8-11.4,106.9-20.9c39.3-10.6,78.6-21.2,117.8-31.8c7-1.9,15.4-5.3,16.2-12.7c0.8-7.6-7.2-12.8-14.2-15.3
			c-20.6-7.5-43.2-9.1-62.7-19.2c-6.1-3.2-12.7-8.9-11.5-15.8c0.6-3.6,3.2-6.5,4.6-9.8c4.6-10.9-4.1-22.5-11.6-31.6
			c-41.2-49.9-61.9-117.1-55.9-182.2c1.3-14,4-28.6,12.6-39.6c7.6-27.1,21.7-60.7,21.7-81.7c-111.4,134.5-350.2,41-524.1,30
			c-81.1-5.1-83.1-22-83.1-22C303.7,693.9,351.3,729.3,362,741.9z"/>
	</g>
	<g>
		<g>
			<linearGradient id="SVGID_5_" gradientUnits="userSpaceOnUse" x1="598" y1="894.7486" x2="921.0349" y2="894.7486">
				<stop  offset="0" style="stop-color:#1A83B7"/>
				<stop  offset="0.8522" style="stop-color:#0E5E77"/>
			</linearGradient>
			<path class="st11" d="M1026.2,1046.4c-20.6-7.5-43.2-9.1-62.7-19.2c-6.1-3.2-12.7-8.9-11.5-15.8c0.6-3.6,3.2-6.5,4.6-9.8
				c4.6-10.9-4.1-22.5-11.6-31.6c-41.2-49.9-61.9-117.1-55.9-182.2c1.3-14,4-28.6,12.6-39.6c7.3-25.8,20.3-57.3,21.6-78.4
				c-4.2,3.7-8.4,7.3-12.8,10.8c-29,28.4-65,44.3-105.3,51.9c-16.3,4-33,6.4-49.7,8.3C745,742,733.1,744,723,745
				c-10.2,1-21,4-17.9,10.1c5.1,2.6,10.1,5.2,15.2,7.8c1.5,0.7,3,1.6,3.6,3.2c1.2,3.5-3.4,5.9-7,6.7c-37.2,7.7-75.2,11.8-113.3,12.1
				c1.9,8.5,12.3,11.6,20.9,13.1c25.2,4.4,50.4,8.9,75.7,13.3c5.2,0.9,11.8,3.6,11.2,8.8c-0.3,2.4-2.2,4.3-3.9,5.9
				c-13.6,12.3-29.1,22.4-45.9,29.9c8.8,7.4,9.3,20.4,10.3,31.8c3,31.6,15.6,62.3,35.8,86.8c1.8,2.2,3.8,4.5,4.5,7.3
				c1.1,4.6-1.4,9.2-3.6,13.5c-3.6,6.9-6.6,14.2-8.8,21.6c-0.7,2.5-1.4,5.1-0.7,7.5c1.6,5.4,8.6,7,14.1,6c5.5-1,10.9-3.6,16.4-3
				c3.1,7.3-2.4,15.2-7.8,21c-9,9.5-19,18.2-26.4,29c-7.4,10.8-16.6,27.9-13.3,40.6c0.9,0.2,1.8,0.4,2.7,0.7
				c24.7,2.5,49.4,6.2,74.1,7.9c3.8,0.2,7.6,0.3,11.3,0.5c4.6,0.2,9.1,0.4,13.7,0.5c5.2,0,10.4-0.1,15.7-0.4
				c36.3-1.9,71.8-11.4,106.9-20.9c39.3-10.6,78.6-21.2,117.8-31.8c7-1.9,15.4-5.3,16.2-12.7
				C1041.1,1054.2,1033.2,1049,1026.2,1046.4z"/>
		</g>
	</g>
	<linearGradient id="SVGID_6_" gradientUnits="userSpaceOnUse" x1="609.7143" y1="988.8874" x2="669.9747" y2="898.996">
		<stop  offset="0" style="stop-color:#1A83B7;stop-opacity:0"/>
		<stop  offset="0.6251" style="stop-color:#0E5E77"/>
	</linearGradient>
	<path class="st12" d="M639.6,939.4c-10.6-9.1-19.2-20.2-28.7-30.5c-5.2-5.7-11-11.3-18.3-13.9s-16.5-1.2-21,5c-0.5,0.7-1,1.6-1,2.5
		c-0.1,1.4,0.9,2.6,1.8,3.7c16.4,19.2,32.7,38.4,49.1,57.6c3.3,3.9,6.6,7.7,10.3,11.2c4.3,3.9,9.1,7.2,13.4,11.1
		c6.8,6.2,12.2,14,16.2,22.3c5.1,10.6,8.1,22.2,8.7,34c3.3-0.8,4.4-5,4.7-8.4c2.2-21.9,5.2-45.5,3.4-67.5c-1.1-13-4.4-9.1-16.1-13.3
		C653.8,950.2,646.2,945.1,639.6,939.4z"/>
	<linearGradient id="SVGID_7_" gradientUnits="userSpaceOnUse" x1="425.4122" y1="815.0155" x2="536.7072" y2="733.6134">
		<stop  offset="0" style="stop-color:#1A83B7;stop-opacity:0"/>
		<stop  offset="0.6251" style="stop-color:#0E5E77"/>
	</linearGradient>
	<path class="st13" d="M419.4,741.2c14.3,27.4,34.9,50.9,56.8,72.7c9.3,9.3,34.8,40.1,35.8,43.1c8.4,3.6-1.2-2.5,7.2,1
		c3.9,1.7,8,3.3,12.2,3c4.2-0.4,8.6-3.5,8.7-7.7c0.1-3.7-2.8-6.7-5.4-9.3c-31.9-30.8-61.3-64.2-87.6-99.9
		c-8.9-12.1-20.9-31.6-35.9-36.9c-10.9-3.8-10.4-0.6-6.2,7.6C409.4,723.7,414.8,732.3,419.4,741.2z"/>
	<linearGradient id="SVGID_8_" gradientUnits="userSpaceOnUse" x1="455.0909" y1="1016.1805" x2="440.2752" y2="1193.2762">
		<stop  offset="0" style="stop-color:#1A83B7;stop-opacity:0"/>
		<stop  offset="0.6251" style="stop-color:#0E5E77"/>
	</linearGradient>
	<path class="st14" d="M709,1103c-17.3,1.2-87-1.9-93.6-1.3c-17.8,1.6-35.1-4.7-52.3-10c1.8-3.3,0.5-7.8-2.3-10.5
		c-2.9-2.8-6.9-4.1-10.9-5.1c-14.1-3.5-28.7-4.3-42.6-8.7c-6.6-2.1-13-5-19.3-7.9c-19.2-8.7-38.6-17.5-55.9-29.6
		c-4.1-2.9-8.1-5.9-12.3-8.6c-2.5,6.3,1.2,13.1,4.7,18.8c4.4,7.1,8.7,14.2,13.1,21.3c1.1,1.7,2.1,3.6,1.9,5.6c0,0.4,1.1,1,3.3,1.8
		c-0.1,0-0.2,0-0.2,0c-6.1-1-12.2-1.9-18.4-2c-6.8-0.1-13.6,0.9-20.4,1.3c-14.5,0.8-28-2.1-42.2-3.4c-15.9-1.5-30.3,4.7-45.6,7.9
		c-22.7,4.7-46.6-0.1-69.1,5.7c4.3,1.1,5,7.6,2,10.9s-7.7,4.2-12.1,4.7c-16.7,1.9-33.7,1.5-50.2-1.3c24.3,18.8,58.2,16.5,88.9,14.5
		c26.5-1.7,45.5,3,71.6,7.9c11.1,2.1,34.9,3.3,46,5c10.8,1.7,21.1,0.6,32,1c22.6,0.9,40.7-0.3,63.3-1.3c19.2-0.9,45.4-0.8,64.7-1.7
		c21.1-1,35.3-2.9,56.5-2.3c30.3,0.8,58.5-0.7,88.5,3.3C708,1122,711.5,1102.8,709,1103z"/>
	<path class="st15" d="M167.3,514.3c-4.8,27.7,4.2,58.7,26.4,75.9c24.4,18.8,57.9,18.2,88.2,24.1c30.3,5.9,63.8,26.6,62.1,57.4
		c-0.2,4.1-1.1,8.4,0.6,12.2c2.8,6.4,11,7.9,17.8,9.9c20.7,6.1,35.3,23.9,49.2,40.3c25.1,29.4,52.2,57,79.7,84.1
		c66.1,65.1,134.5,127.7,205.1,187.8c22,18.7,44.3,37.2,66.5,55.7c47.1,39.1,94.1,78.3,141.2,117.4c0.8-12.5-8.1-23.2-16.7-32.3
		c-55.1-58.7-119.2-108.1-179.5-161.5c-69.4-61.6-133.8-128.8-194.2-199.1c-36.9-43-72.9-87.6-117.9-122
		c-16-12.2-27.7-48.8-41.4-63.6c-11.5-12.4-25.6-1.4-34.2-15.9c-5.7-9.6-11-22.9-3-30.7c5.3-5.2,14.8-5.4,18.7-11.8
		c3.3-5.6,0.4-12.7-2.5-18.5c-7.4-14.5-14.7-29-22.1-43.5c-7.1-14.1-14.6-28.5-26.7-38.6C233.1,398.5,175.7,465.6,167.3,514.3z"/>
	<path class="st16" d="M696.4,1005.9c22,18.7,44.3,37.2,66.5,55.7c47.1,39.1,94.1,78.3,141.2,117.4c0.8-12.5-8.1-23.2-16.7-32.3
		c-55.1-58.7-119.2-108.1-179.5-161.5C638.6,923.6,625.8,945.8,696.4,1005.9z"/>
	<path class="st16" d="M613,895c-0.9,0-1,4.6-1.6,5.3c-3.3,3.7-7.2,7-11.7,9c-2,0.9-5.7,4.6-7.7,3.7c-1.4-0.7-7.6-6.5-10.5-10.7
		c-0.5-0.7-0.9-1.5-0.8-2.3c0.1-0.8,0.9-1.4,1.5-1.9c4.6-3.2,16.2-11.2,21.7-12.2C604,886,613.2,895,613,895z"/>
	<path class="st16" d="M653.9,969.1c6.1,3.9,11.5,8.8,16.1,14.4c0-6.2-0.1-12.5-0.1-18.7c-5,2.6-10.7,3.8-16.3,3.5"/>
	<path class="st17" d="M435.7,790.6c0.8,16.6,6.2,33,15.5,46.8"/>
	<path class="st17" d="M649.5,686c0.7,7.5,1.4,15.1,2,22.6"/>
	<g>
		<g>
			<linearGradient id="SVGID_9_" gradientUnits="userSpaceOnUse" x1="613.3805" y1="675.2397" x2="697.8409" y2="699.4741">
				<stop  offset="0.2872" style="stop-color:#FFEBE6"/>
				<stop  offset="0.8764" style="stop-color:#E5D2CF"/>
			</linearGradient>
			<path class="st18" d="M673.4,663.9c-0.5,0.1-1,0.1-1.5,0.2c-2,0.4-4.2,1.1-5.5,2.7c-3,3.7-0.1,9.5-2.2,13.8
				c-1.8,3.6-6.3,4.6-10.3,4.6c-7.7-0.1-15.7-2.8-22.9-0.1c-2.3,0.9-4.4,2.3-6.6,3.3c-4.3,2-8.6,2.3-12.7,1.6
				c0.7,0.9,1.4,1.8,2.3,2.8c9.8,11.1,20.7-1,34.5,0c13.8,1,19.8,13.1,30.2,11.1c10.3-2,16.4-21.1,9.5-30.2
				C685.1,669.7,679.2,666.4,673.4,663.9z"/>
		</g>
	</g>
	<g>
		<g>
			<path d="M657.8,659.5c1.9,0.5,23.1,6.4,29.5,14.7c3.2,4.3,3.7,11.4,1.1,18.3c-2.2,5.7-5.9,9.5-9.9,10.3c-0.7,0.1-1.4,0.2-2.1,0.2
				c-4,0-7.4-2.2-11.3-4.7c-4.5-2.9-9.5-6.1-16.5-6.6c-0.6,0-1.2-0.1-1.7-0.1c-4.8,0-9.1,1.3-13.2,2.6c-3.5,1.1-6.8,2.1-9.9,2.1
				c-3.5,0-6.4-1.4-9-4.4c-6-6.8-7.9-12.6-5.9-17.2C615.1,660.7,655.1,659.6,657.8,659.5 M657.9,658.5c0,0-73.3,1-44,34.2
				c3.1,3.5,6.3,4.7,9.7,4.7c6.8,0,14.4-4.8,23.1-4.8c0.6,0,1.1,0,1.7,0.1c12.7,0.9,18.9,11.3,27.9,11.3c0.7,0,1.5-0.1,2.3-0.2
				c10.3-2,16.4-21.1,9.5-30.2C681.2,664.5,657.9,658.5,657.9,658.5L657.9,658.5z"/>
		</g>
	</g>
	<g>
		<path class="st1" d="M605.3,862.7c2,3.4,2.3,7.3,2.1,11.1c-0.5,9.2-4,18.8-12.8,24.7c-8.3,5.6-19.7,7-30.4,8.2
			c-3.7,0.4-8.1,0.6-10.4-1.7c-1.6-1.6-1.5-3.8-1.4-5.9c0.9-12.5,1.7-29.6,16.3-37.1C578.1,857.1,599.5,853,605.3,862.7z"/>
	</g>
	<g>
		<path class="st1" d="M638.4,929.9c-3.2,1.4-6.7,3.1-7.7,6.4c-0.7,2.2-0.2,4.5,0.4,6.7c2.6,10.4,6.9,22.6,17.3,25.2
			c4.8,1.2,9.8-0.1,14.5-1.3c10-2.7,21.2-6.2,25.8-15.6c1.6-3.2,2.1-6.8,2.1-10.4C690.7,903.3,657.4,921.6,638.4,929.9z"/>
	</g>
	<linearGradient id="SVGID_10_" gradientUnits="userSpaceOnUse" x1="644.2117" y1="940.9792" x2="666.1635" y2="967.2874">
		<stop  offset="0.2872" style="stop-color:#6ACFFB"/>
		<stop  offset="0.8764" style="stop-color:#54AECF"/>
	</linearGradient>
	<path class="st19" d="M652.4,950c5.2-2,9.3-6.4,11.7-11.4c2.3,7.8,4.1,15.7,5.3,23.7c0.1,0.8,0.2,1.8-0.3,2.4
		c-0.4,0.4-1,0.6-1.6,0.8c-5,1.2-10.1,2-15.2,2.2c-1.4,0.1-2.9,0.1-4.3-0.3c-1.7-0.4-4.2-1.4-5.5-2.5c-4.5-3.9-7.5-12.9-7.3-13
		c1.4-1.1,6.6-0.4,8.2-0.4C646.4,951.3,649.5,951.1,652.4,950z"/>
	<linearGradient id="SVGID_11_" gradientUnits="userSpaceOnUse" x1="591.1284" y1="871.0673" x2="594.7662" y2="898.6528">
		<stop  offset="0.2872" style="stop-color:#6ACFFB"/>
		<stop  offset="0.8764" style="stop-color:#54AECF"/>
	</linearGradient>
	<path class="st20" d="M604.9,863.7c1.8,0.9,1.9,3.4,1.8,5.4c-0.1,2.6-0.3,5.1-0.4,7.7c-0.1,2.3-1.3,4.7-1.9,7
		c-1.4,5.6-4.4,10.2-9.2,13.5s-10.2,5.2-15.7,6.9c0-3-0.1-6-0.1-8.9c0-1.8-0.9-6.3-0.1-7.9c1.2-2.2,8.2-3.3,10.7-4.8
		c3.6-2.1,6.8-4.9,9.4-8.1C600,873.6,606,864.3,604.9,863.7z"/>
	<path class="st10" d="M399.4,803.5c2.2,11.5,14.4,17.9,25.2,22.5c46.4,19.9,99.8,38.4,146,18c8.4,4.4,9.4,15.8,9.2,25.3
		c-0.9,59.5-1.7,119.1-2.6,178.6c-0.2,15.2-0.5,30.6-5,45c-12,2-27.3-5.6-37.9-11.6c-18.8-10.7-98.8-38.9-113.8-59.9"/>
	<linearGradient id="SVGID_12_" gradientUnits="userSpaceOnUse" x1="673.9017" y1="963.3705" x2="853.5" y2="963.3705">
		<stop  offset="0" style="stop-color:#1A83B7"/>
		<stop  offset="1" style="stop-color:#0E5E77"/>
	</linearGradient>
	<path class="st21" d="M824.4,818c-39.5,43.5-92.6,74.6-149.8,87.9c-5.2,1.2-11,2.7-13.5,7.4c-2.5,4.7-0.5,10.4,1.2,15.4
		c18.5,54.5-2.5,114.7,6.2,171.5c0.4,2.9,1.2,6.3,3.8,7.7c1.9,1.1,4.4,0.8,6.6,0.5c36.2-5.2,80.8-16.1,106.7-42c12-12,49.2-43,54-56
		"/>
	<path class="st17" d="M785.5,853.5c6.9-9,9.3-21.5,8-32.8"/>
	<linearGradient id="SVGID_13_" gradientUnits="userSpaceOnUse" x1="743.4565" y1="942.679" x2="942.2493" y2="942.679">
		<stop  offset="0" style="stop-color:#1A83B7"/>
		<stop  offset="0.6263" style="stop-color:#0E5E77;stop-opacity:0"/>
	</linearGradient>
	<path class="st22" d="M693.1,915.8c-3.4,0.7-7.1,1.5-9.5,3.9c-3.3,3.4-3.2,8.8-2.9,13.6c1.1,15.7,2.3,31.4,3.5,47.1
		c2.8-2.7,5.6-5.5,8.3-8.2c-1.6,11.8-3.2,23.5-4.8,35.3c-1.5,11.4-2.1,25.3,7.3,31.9c6.6,4.7,16,3.5,23-0.6c7-4.1,12.1-10.7,17-17.2
		c9-11.8,18-23.6,27-35.5c2.6,22.6-12.2,43.8-29.5,58.7c-13.5,11.7-29.1,21.3-39.5,35.9c-2.6,3.6-4.9,7.7-8.7,10
		c-3.8,2.4-9.6,2.3-11.9-1.5c-0.9-1.5-1.1-3.2-1.3-4.9c-2.5-20.8-2.8-41.9-1-62.8c1.3-15.5,3.8-31.1,2.4-46.6
		c-1.7-18.4-8.8-36.1-10-54.6c-0.1-2.2-0.2-4.6,1-6.5c1.2-1.9,3.4-3,5.5-3.8c22-8.1,43-14,63.9-23c43.7-18.8,82-50.7,109.6-89.4
		c-0.7,4.1-1.4,8.3-2.1,12.4c7.9-4.5,14.9-10.3,20.9-17.1c-4.1,4.8-4.4,15.3-9.2,21.1c-5.9,7.3-13.2,9.6-20.7,14.5
		c-13,8.4-23.8,21.7-35.9,31.6C765.3,884.9,731.8,907.5,693.1,915.8z"/>
	<linearGradient id="SVGID_14_" gradientUnits="userSpaceOnUse" x1="251.4727" y1="1022.9849" x2="403.3306" y2="1022.9849">
		<stop  offset="0.2367" style="stop-color:#0E5E77"/>
		<stop  offset="1" style="stop-color:#1A83B7;stop-opacity:0"/>
	</linearGradient>
	<path class="st23" d="M320.9,1009c2.6,8.2,10.6,13.7,18.9,15.7c8.3,2,17.1,1.1,25.6,0.2c-4.1,3.2-8.1,6.4-12.2,9.7
		c7.7,7.7,19.2,9.9,30,10.8c10.8,0.9,22.1,1.1,31.8,5.9c-18,3.7-36.8,3.6-54.8-0.4c-9.6-2.1-19.1-5.4-28.9-5.1
		c-6.2,0.2-12.2,1.9-18.3,2.9c-19.7,3.4-40.1,0.5-59.6,4.8c6-8.5,21.5-13.5,34.5-22.5c18.2-12.6,29-21,32.3-39
		C322.2,997,319.1,1003.3,320.9,1009z"/>
	<linearGradient id="SVGID_15_" gradientUnits="userSpaceOnUse" x1="274.2131" y1="603.0543" x2="278.36" y2="548.9128">
		<stop  offset="0.2872" style="stop-color:#916243"/>
		<stop  offset="0.8764" style="stop-color:#7A4F37"/>
	</linearGradient>
	<path class="st24" d="M227.9,536.5c1.5,15,10.4,29.2,23.2,37.1c2.2,1.4,4.5,2.5,7,3.1c2.5,0.5,5.2,0.3,7.7,0.2
		c15-1.1,31.8-1.6,43,8.4c2.6,2.3,4.8,5.2,7.8,7s7.2,2.4,9.8,0.1c-6-6.1-11.9-13-13.6-21.4s1.9-18.5,10.1-21.3
		c-8.9,3.1-17.8,6.2-26.7,9.3c-11,3.8-22.4,7.7-34.1,7.4c-11.7-0.4-23.9-6-28.9-16.5C231.2,545.5,229.5,540.8,227.9,536.5z"/>
	<path class="st17" d="M334.5,544.5c-11.5,7.4-38.8,15.5-52,19c-8.7,2.3-17.9,3.7-26.8,2.2c-8.9-1.5-17.5-6.2-22.3-13.8
		c-3.3-5.3-4.5-11.6-5.6-17.7c-2.4-12.7-4.8-25.4-7.2-38.1c-0.3-1.4-0.5-2.9,0.1-4.1c0.5-1,1.5-1.6,2.4-2.2
		c10.8-6.8,23.1-14,35.6-11.2c9.6,2.1,16.9,9.6,23.6,16.7c3.8,4,7.5,8,11.3,12c2.4,2.5,5,5.7,4.3,9.1c-0.4,2-1.8,3.6-3.3,4.9
		c-5,4.3-11.9,6.7-18.4,5.3c-6.5-1.3-12.2-6.6-13.2-13.2"/>
	
		<radialGradient id="SVGID_16_" cx="644" cy="654" r="22.463" gradientTransform="matrix(1 0 0 0.6232 0 246.3962)" gradientUnits="userSpaceOnUse">
		<stop  offset="0" style="stop-color:#666666"/>
		<stop  offset="1" style="stop-color:#000000"/>
	</radialGradient>
	<path class="st25" d="M682.3,662.1c-1.1,8.2-14.4,13.3-29.7,11.3c-15.3-2-26.9-10.3-25.8-18.5c1.1-8.2,14.4-13.3,29.7-11.3
		C671.8,645.6,683.3,653.9,682.3,662.1z"/>
	<linearGradient id="SVGID_17_" gradientUnits="userSpaceOnUse" x1="661.8317" y1="633.6916" x2="662.598" y2="468.1831">
		<stop  offset="0.2872" style="stop-color:#6ACFFB"/>
		<stop  offset="0.8764" style="stop-color:#54AECF"/>
	</linearGradient>
	<path class="st26" d="M752.8,569.7c-2.3-3.4-4.8-6.9-7.7-9.8c19.2,0.9,38.5,1.4,57.7,1.3c12.2,0,24.7-0.2,36.3,3.8
		c0.3-7.7-3.8-15.1-9.4-20.4c-5.6-5.3-12.7-8.8-19.8-11.9c-20.4-8.9-41.9-15.1-63.5-20.3c-82-20-167.7-27.8-251.1-14.9
		c-1.7,0.3-3.5,0.6-4.9,1.7c-4,3.1-6.4,10-4.3,13.1c2.7,4.1,13.2,7.5,17.7,9.6c12.4,5.9,25.3,10.5,38.5,14.1
		c26.5,7.3,53.9,10.9,81.2,13.9c21.7,2.4,43.4,4.6,65.1,6.4c0,0,0,0,0,0c3.8,3.5,4.4,9.2,4.6,14.4c1.4,24.9,2.4,51,14.4,72.9
		C717.7,661.6,778.5,607.7,752.8,569.7z"/>
	<g>
		<radialGradient id="SVGID_18_" cx="498.5" cy="596.5" r="103.0109" gradientUnits="userSpaceOnUse">
			<stop  offset="0" style="stop-color:#FFFFFF"/>
			<stop  offset="0.4455" style="stop-color:#FDFDFD"/>
			<stop  offset="1" style="stop-color:#E6E6E6"/>
		</radialGradient>
		<path class="st27" d="M498.5,698C440.9,698,394,652.5,394,596.5S440.9,495,498.5,495S603,540.5,603,596.5S556.1,698,498.5,698z"/>
		<g>
			<path d="M498.5,495.5c57.3,0,104,45.3,104,101s-46.7,101-104,101s-104-45.3-104-101S441.2,495.5,498.5,495.5 M498.5,494.5
				c-58,0-105,45.7-105,102c0,56.3,47,102,105,102s105-45.7,105-102C603.5,540.2,556.5,494.5,498.5,494.5L498.5,494.5z"/>
		</g>
	</g>
	<g>
		<radialGradient id="SVGID_19_" cx="818" cy="599.8713" r="98.5748" gradientUnits="userSpaceOnUse">
			<stop  offset="0" style="stop-color:#FFFFFF"/>
			<stop  offset="0.4455" style="stop-color:#FDFDFD"/>
			<stop  offset="1" style="stop-color:#E6E6E6"/>
		</radialGradient>
		<path class="st28" d="M818,697c-55.1,0-100-43.6-100-97.1c0-53.6,44.9-97.1,100-97.1s100,43.6,100,97.1
			C918,653.4,873.1,697,818,697z"/>
		<g>
			<path d="M818,503.2c54.9,0,99.5,43.3,99.5,96.6s-44.6,96.6-99.5,96.6s-99.5-43.3-99.5-96.6S763.1,503.2,818,503.2 M818,502.2
				c-55.5,0-100.5,43.7-100.5,97.6c0,53.9,45,97.6,100.5,97.6s100.5-43.7,100.5-97.6C918.5,546,873.5,502.2,818,502.2L818,502.2z"/>
		</g>
	</g>
	
		<ellipse transform="matrix(8.600707e-02 -0.9963 0.9963 8.600707e-02 -114.255 1019.4568)" class="st29" cx="498.5" cy="572" rx="20.5" ry="14"/>
	
		<ellipse transform="matrix(0.9956 -9.351500e-02 9.351500e-02 0.9956 -51.6696 79.3657)" class="st29" cx="821" cy="591" rx="13.5" ry="20.5"/>
	<g>
		<path class="st30" d="M631.6,538.3c101.9,12.7,346.1,10.9,374-10c27.9-20.8-186.5-133.9-314.4-147.5s-359.1,48.6-375.9,57
			C268.2,461.4,529.7,525.7,631.6,538.3z"/>
	</g>
	<g>
		<linearGradient id="SVGID_20_" gradientUnits="userSpaceOnUse" x1="652.8838" y1="501.3271" x2="579.8838" y2="738.3271">
			<stop  offset="0" style="stop-color:#D1B482"/>
			<stop  offset="0.6251" style="stop-color:#A68B65"/>
		</linearGradient>
		<path class="st31" d="M631.6,538.3c101.9,12.7,346.1,10.9,374-10C736,566,367,502,315.3,437.9
			C268.2,461.4,529.7,525.7,631.6,538.3z"/>
	</g>
	<path class="st32" d="M522.2,402.7c-1.5,7.8,5.2,14.6,11.7,19.1c13.5,9.4,29,16,45.2,19.1"/>
	<path class="st33" d="M521.6,404.3c45.3-92.8,92.7-184.5,142.2-275.1c6.9-12.7,14.3-25.8,25.9-34.3c9.2-6.7,20.3-10.1,31.3-12.9
		c15.8-4.1,31.8-7.3,48-9.6c9.8-1.4,20.2-2.4,29,2c6.9,3.4,11.9,9.8,16.5,16c13.2,17.8,25.4,36.3,36.5,55.5
		c8.9,15.4,17.9,32.2,33.6,40.7c15.7,8.5,40,3.1,43.9-14.3c0.5,21.6-10,43.2-27.2,56.3c-17.2,13.1-40.9,17.3-61.6,10.9
		c-4.8-1.5-10.2-3.4-14.6-0.9c-4,2.3-5.3,7.4-6.2,11.9c-12.3,65-9.7,132.7,7.5,196.6"/>
	<g>
		<linearGradient id="SVGID_21_" gradientUnits="userSpaceOnUse" x1="779.9537" y1="84.214" x2="1232.931" y2="270.2047">
			<stop  offset="0" style="stop-color:#D1B482"/>
			<stop  offset="0.6251" style="stop-color:#A68B65"/>
		</linearGradient>
		<path class="st34" d="M799.2,93.1c-0.1-0.7-0.2-1.3-0.2-2C799,91.7,799.1,92.4,799.2,93.1z"/>
		<linearGradient id="SVGID_22_" gradientUnits="userSpaceOnUse" x1="687.6368" y1="309.0503" x2="1140.6141" y2="495.041">
			<stop  offset="0" style="stop-color:#D1B482"/>
			<stop  offset="0.6251" style="stop-color:#A68B65"/>
		</linearGradient>
		<path class="st35" d="M819,414.2c-10.1-53.9-10.2-109.7,0-163.6c0.9-4.5,2.2-9.6,6.2-11.9c4.4-2.5,9.8-0.5,14.6,0.9
			c9.2,2.8,18.9,3.5,28.5,2.3c-2.3-7.8-5-15.6-7.6-23.3c-7.3-21.4-12.8-40.6-23.9-60.4c-6.5-11.6-13-23.1-19.5-34.7
			c-3.9-6.9-16.2-21.7-18-30.5c2.7,23.1,5.3,46.3,3.1,69.4c-2.3,23.8-10.2,47.7-26.4,65.3c-7.3,8-17,17.5-13.2,27.6
			c1.5,3.9,4.8,6.8,7.3,10.1c15.8,20.8-1.5,53.1,10.7,76.2c3.2,6,8.3,12.2,6.3,18.6c-1.7,5.1-7.3,7.7-12.3,9.7
			c-19,7.4-38.1,14.8-57.1,22.2c12.4,15.2,39.3,10.6,51.9,25.7c1.9,2.3,3.5,5.2,3.2,8.2c-0.6,7.1-9.4,9.7-16.5,10.6
			c-31.4,4-62.8,7.9-94.2,11.9c3.7,7.3,7.5,14.7,11.2,22C613.6,495.3,546.3,489.3,482,483c50.2,28.1,105.3,45,161.9,56.7
			c108,11.1,334.9,8.7,361.7-11.3C1025.1,513.7,924.8,453.4,819,414.2z"/>
	</g>
	<path class="st32" d="M818.4,253.1c7.3-30,7.6-61.8,0.8-91.9"/>
	<g>
		<path class="st17" d="M529.5,389.5c-105.8,15.2-203.2,42.9-214.2,48.4c-47.1,23.5,214.4,87.8,316.3,100.4s346.1,10.9,374-10
			c19.8-14.8-80.2-74.7-187-113.9"/>
	</g>
	<path class="st32" d="M521.6,404.3c45.3-92.8,92.7-184.5,142.2-275.1c6.9-12.7,14.3-25.8,25.9-34.3c9.2-6.7,20.3-10.1,31.3-12.9
		c15.8-4.1,31.8-7.3,48-9.6c9.8-1.4,20.2-2.4,29,2c6.9,3.4,11.9,9.8,16.5,16c13.2,17.8,25.4,36.3,36.5,55.5
		c8.9,15.4,17.9,32.2,33.6,40.7c15.7,8.5,40,3.1,43.9-14.3c0.5,21.6-10,43.2-27.2,56.3c-17.2,13.1-40.9,17.3-61.6,10.9
		c-4.8-1.5-10.2-3.4-14.6-0.9c-4,2.3-5.3,7.4-6.2,11.9c-12.3,65-9.7,132.7,7.5,196.6"/>
</g>
</svg>
